<svg 
 xmlns="http://www.w3.org/2000/svg"
 xmlns:xlink="http://www.w3.org/1999/xlink"
 width="22px" height="22px">
<path fill-rule="evenodd"  fill="rgb(255, 255, 255)"
 d="M22.000,14.676 C22.000,14.648 21.991,13.968 21.292,13.968 C20.593,13.968 20.584,14.648 20.584,14.676 L20.584,19.076 C20.584,19.907 19.907,20.584 19.076,20.584 L14.676,20.584 C14.648,20.584 13.968,20.593 13.968,21.292 C13.968,21.991 14.648,22.000 14.676,22.000 L19.079,22.000 C20.691,22.000 22.000,20.688 22.000,19.079 L22.000,14.676 ZM0.708,13.968 C0.010,13.968 0.000,14.648 0.000,14.676 L0.000,19.079 C0.000,20.691 1.312,22.000 2.921,22.000 L7.324,22.000 C7.352,22.000 8.032,21.991 8.032,21.292 C8.032,20.593 7.352,20.584 7.324,20.584 L2.924,20.584 C2.093,20.584 1.416,19.907 1.416,19.076 L1.416,14.676 C1.416,14.648 1.407,13.968 0.708,13.968 ZM21.292,8.032 C21.991,8.032 22.000,7.352 22.000,7.324 L22.000,2.921 C22.000,1.309 20.688,0.000 19.079,0.000 L14.676,0.000 C14.648,0.000 13.968,0.010 13.968,0.708 C13.968,1.407 14.648,1.416 14.676,1.416 L19.076,1.416 C19.907,1.416 20.584,2.093 20.584,2.924 L20.584,7.324 C20.584,7.352 20.593,8.032 21.292,8.032 ZM16.882,10.292 L5.121,10.292 C4.732,10.292 4.413,10.608 4.413,11.000 C4.413,11.389 4.729,11.708 5.121,11.708 L16.882,11.708 C17.271,11.708 17.591,11.392 17.591,11.000 C17.587,10.611 17.271,10.292 16.882,10.292 ZM0.000,7.324 C0.000,7.352 0.010,8.032 0.708,8.032 C1.407,8.032 1.416,7.352 1.416,7.324 L1.416,2.924 C1.416,2.093 2.093,1.416 2.924,1.416 L7.324,1.416 C7.352,1.416 8.032,1.407 8.032,0.708 C8.032,0.010 7.352,0.000 7.324,0.000 L2.921,0.000 C1.309,0.000 0.000,1.312 0.000,2.921 L0.000,7.324 Z"/>
</svg>